<?xml version="1.0" encoding="utf-8"?>
<!-- Generator: Adobe Illustrator 16.0.0, SVG Export Plug-In . SVG Version: 6.00 Build 0)  -->
<!DOCTYPE svg PUBLIC "-//W3C//DTD SVG 1.1//EN" "http://www.w3.org/Graphics/SVG/1.1/DTD/svg11.dtd">
<svg version="1.1" id="Слой_1" xmlns="http://www.w3.org/2000/svg" xmlns:xlink="http://www.w3.org/1999/xlink" x="0px" y="0px"
	 width="30px" height="30px" viewBox="0 0 30 30" enable-background="new 0 0 30 30" xml:space="preserve">
<g>
	<path fill-rule="evenodd" clip-rule="evenodd" d="M11.805,19.746c2.299-3.381,4.575-6.726,6.847-10.074
		c1.313-1.934,2.613-3.875,3.924-5.81c0.771-1.137,1.35-1.253,2.47-0.506c0.527,0.352,1.048,0.713,1.57,1.071
		c1.071,0.733,1.204,1.356,0.485,2.417c-3.857,5.696-7.72,11.389-11.581,17.083c-0.464,0.685-0.915,1.377-1.395,2.049
		c-0.962,1.353-2.173,1.528-3.345,0.383c-2.644-2.584-5.247-5.208-7.849-7.834c-0.653-0.659-0.635-1.265,0.011-1.96
		c0.563-0.606,1.153-1.188,1.755-1.757c0.764-0.722,1.39-0.725,2.158,0.029c1.494,1.465,2.963,2.958,4.443,4.437
		C11.451,19.428,11.615,19.57,11.805,19.746z"/>
</g>
</svg>
