<?xml version="1.0" encoding="utf-8"?>
<!-- Generator: Adobe Illustrator 16.0.0, SVG Export Plug-In . SVG Version: 6.00 Build 0)  -->
<!DOCTYPE svg PUBLIC "-//W3C//DTD SVG 1.1//EN" "http://www.w3.org/Graphics/SVG/1.1/DTD/svg11.dtd">
<svg version="1.1" id="Слой_1" xmlns="http://www.w3.org/2000/svg" xmlns:xlink="http://www.w3.org/1999/xlink" x="0px" y="0px"
	 width="200px" height="200px" viewBox="0 0 200 200" enable-background="new 0 0 200 200" xml:space="preserve">
<path fill-rule="evenodd" clip-rule="evenodd" d="M198.756,78.663c-0.518,0.355-1.1,0.644-1.543,1.075
	c-15.453,15.074-30.885,30.168-46.35,45.227c-0.931,0.905-1.268,1.68-1.023,3.042c2.408,13.426,4.727,26.867,7.042,40.309
	c1.458,8.45,2.865,16.91,4.36,25.737c-3.759-1.969-7.264-3.8-10.765-5.64c-16.362-8.596-32.72-17.206-49.111-25.744
	c-0.592-0.31-1.666-0.18-2.302,0.153C79.563,173.056,60.09,183.34,40.61,193.611c-0.278,0.147-0.585,0.239-1.087,0.441
	c0.719-4.246,1.407-8.306,2.096-12.366c2.744-16.162,5.487-32.325,8.231-48.487c0.01-0.064,0.007-0.135,0.031-0.194
	c1.988-4.884,0.068-8.091-3.649-11.586C31.799,107.846,17.746,93.87,3.533,80.063c-0.503-0.489-1.202-0.776-1.81-1.158
	c0.151-0.215,0.302-0.43,0.453-0.645c4.454-0.65,8.909-1.294,13.363-1.951c13.109-1.936,26.216-3.887,39.328-5.813
	c4.284-0.628,8.57-1.24,12.868-1.77c1.503-0.186,2.387-0.817,3.067-2.223C75.916,55.96,81.12,45.459,86.291,34.943
	c4.419-8.989,8.832-17.982,13.252-26.971c0.166-0.336,0.382-0.647,0.73-1.23c1.72,3.437,3.361,6.671,4.967,9.924
	c8.176,16.555,16.381,33.096,24.459,49.699c0.88,1.807,2.163,2.155,3.802,2.389c13.898,1.983,27.797,3.974,41.692,5.979
	c6.946,1.003,13.886,2.053,20.832,3.05c0.896,0.128,1.819,0.065,2.73,0.092C198.756,78.137,198.756,78.4,198.756,78.663z"/>
</svg>
